<svg xmlns="http://www.w3.org/2000/svg" version="1.0" width="800.000000pt" height="227.000000pt" viewBox="0 0 800.000000 227.000000" preserveAspectRatio="xMidYMid meet" transform="matrix(1, 0, 0, 1, 0, 0)">

<g transform="translate(0.000000,227.000000) scale(0.100000,-0.100000)" fill="#FF4E50" stroke="none">
<path d="M1447 2065 c-15 -14 -39 -25 -51 -25 -47 0 -223 -51 -296 -86 -161 -76 -337 -217 -436 -347 -100 -132 -154 -297 -154 -471 0 -97 12 -144 45 -180 29 -32 57 -33 85 -4 26 28 26 38 -11 154 -77 246 -35 390 175 600 97 98 193 166 310 220 91 41 236 84 287 84 36 0 39 -2 39 -28 0 -16 -9 -55 -20 -88 -40 -123 -449 -870 -620 -1135 -105 -162 -112 -319 -18 -416 36 -37 125 -79 198 -93 75 -14 214 -12 291 4 140 30 320 137 455 271 145 144 287 408 344 640 32 133 30 317 -6 423 -34 104 -108 233 -169 297 -56 57 -182 126 -269 145 -27 6 -68 22 -91 35 -51 30 -53 30 -88 0z m249 -110 c116 -69 195 -182 230 -331 26 -110 15 -370 -20 -489 -40 -132 -88 -245 -158 -369 -53 -92 -81 -130 -173 -222 -154 -155 -292 -236 -448 -265 -120 -22 -235 20 -272 98 -43 91 -8 171 330 768 190 336 379 703 389 759 19 98 32 104 122 51z" fill="#FF4E50"/>
<path d="M5117 1948 c-19 -29 -47 -78 -62 -108 -15 -30 -53 -98 -85 -150 -31 -52 -81 -140 -110 -195 -29 -55 -74 -136 -101 -181 -27 -45 -49 -84 -49 -89 0 -4 -28 -55 -63 -114 -79 -131 -101 -169 -144 -249 -44 -82 -131 -203 -235 -326 -135 -161 -191 -194 -243 -141 -25 24 -27 31 -23 92 4 59 14 84 101 256 53 106 126 241 162 302 36 60 65 113 65 116 0 11 -60 29 -95 29 -17 0 -38 -6 -47 -12 -24 -19 -101 -144 -154 -250 -84 -167 -111 -196 -205 -217 -50 -11 -97 4 -122 39 -15 21 -12 29 48 144 59 113 95 206 95 247 0 9 -8 27 -18 39 -24 30 -99 30 -147 0 -70 -43 -129 -169 -130 -276 0 -51 5 -67 29 -102 36 -52 31 -74 -32 -156 -71 -94 -241 -258 -297 -287 -81 -43 -109 -44 -151 -7 l-36 32 4 86 c6 96 44 220 147 474 68 168 74 207 36 232 -32 21 -100 14 -125 -13 -17 -19 -80 -182 -110 -290 -21 -70 -28 -83 -152 -239 -177 -225 -322 -329 -459 -329 -73 0 -103 14 -143 69 -40 54 -18 287 31 327 11 10 22 3 57 -33 73 -76 141 -83 263 -26 128 59 258 272 239 390 -17 108 -65 143 -183 136 -113 -8 -215 -62 -319 -170 -122 -128 -192 -247 -229 -389 -37 -140 19 -261 145 -318 78 -35 201 -21 314 36 67 34 211 175 297 291 65 87 89 108 89 80 0 -7 -7 -56 -16 -108 -22 -126 -10 -189 47 -254 53 -60 92 -72 163 -52 118 35 270 166 411 355 33 44 67 83 76 86 9 3 38 -6 64 -20 58 -30 86 -31 144 -4 61 27 69 15 38 -63 -14 -34 -31 -93 -38 -130 -11 -59 -10 -72 5 -113 21 -54 74 -95 124 -95 49 0 122 42 192 110 34 34 80 78 103 99 37 34 39 34 33 11 -4 -14 -23 -61 -42 -106 -19 -45 -34 -88 -34 -97 0 -17 54 -37 102 -37 34 0 55 27 104 131 21 44 42 78 48 76 6 -2 14 -26 17 -54 4 -28 17 -70 30 -92 32 -57 73 -81 141 -81 52 0 142 23 163 41 14 13 45 11 92 -7 81 -31 160 9 298 152 50 52 93 94 98 94 12 0 8 -44 -7 -65 -7 -11 -27 -53 -44 -92 -35 -83 -34 -85 49 -98 40 -6 49 -4 71 17 13 12 38 52 54 88 16 36 33 68 39 72 14 10 35 -11 35 -36 0 -40 48 -125 82 -146 44 -28 159 -24 235 9 51 23 53 23 104 6 43 -15 58 -16 92 -5 76 23 144 75 239 184 121 139 120 139 129 124 4 -7 1 -40 -7 -73 -27 -112 2 -185 87 -219 41 -17 42 -16 103 12 68 32 209 167 271 260 52 76 62 70 61 -35 0 -99 16 -143 76 -200 72 -70 163 -88 281 -57 98 25 156 61 256 158 90 89 296 357 289 378 -2 6 -22 -16 -45 -49 -91 -130 -203 -264 -274 -327 -173 -156 -354 -190 -429 -79 -22 32 -25 47 -25 127 0 71 6 105 24 154 28 73 45 78 79 26 15 -22 41 -43 70 -56 41 -18 53 -20 98 -10 125 26 233 113 291 234 58 121 64 183 26 263 -24 51 -69 69 -160 63 -141 -9 -295 -112 -409 -273 -123 -176 -157 -221 -247 -333 -121 -150 -158 -182 -209 -182 -64 0 -89 47 -70 136 16 78 103 260 277 579 87 160 211 387 275 505 64 118 136 251 160 294 41 75 42 80 25 92 -10 8 -40 14 -67 14 -57 0 -70 -11 -140 -130 -99 -167 -347 -619 -458 -835 -131 -254 -166 -312 -280 -455 -161 -203 -258 -279 -327 -254 -54 19 -52 37 15 108 145 156 247 362 259 527 7 92 1 117 -33 159 -80 95 -230 92 -360 -6 -63 -49 -73 -14 -20 74 31 54 350 616 412 729 37 67 26 83 -57 83 -57 0 -58 -1 -87 -42 -16 -24 -50 -83 -77 -133 -27 -49 -73 -130 -102 -178 -30 -49 -70 -121 -89 -160 -20 -39 -94 -170 -164 -291 -70 -122 -146 -257 -170 -301 -101 -190 -361 -508 -453 -556 -22 -11 -52 -21 -68 -21 -28 -1 -69 25 -69 44 0 5 32 45 71 89 117 133 193 269 230 410 37 142 27 221 -33 275 -84 77 -207 71 -332 -15 -49 -34 -81 -36 -68 -4 4 10 23 47 43 83 20 36 59 106 86 155 27 50 92 162 143 250 165 282 203 357 193 374 -7 11 -29 17 -71 19 l-62 3 -33 -53z m-1302 -775 c26 -26 11 -101 -39 -202 -51 -100 -78 -137 -94 -127 -23 14 9 189 50 271 40 79 53 88 83 58z m1334 -29 c17 -21 21 -41 21 -96 0 -38 -5 -90 -11 -116 -25 -105 -201 -433 -233 -432 -6 0 -20 7 -30 15 -11 8 -33 15 -48 15 -22 0 -32 -7 -45 -35 -15 -32 -15 -37 0 -76 20 -50 15 -58 -52 -101 -32 -20 -58 -28 -90 -28 -39 0 -49 5 -82 40 -23 24 -41 54 -45 76 -10 56 2 162 28 240 35 105 140 274 223 359 115 118 195 163 292 164 44 1 54 -3 72 -25z m994 15 c14 -6 30 -22 36 -36 15 -34 14 -118 -4 -188 -18 -72 -152 -346 -194 -394 -28 -35 -29 -35 -68 -22 -51 17 -74 12 -92 -21 -13 -23 -13 -34 -2 -79 13 -50 13 -53 -10 -71 -35 -28 -100 -58 -129 -58 -66 0 -130 84 -130 171 1 115 66 291 158 426 134 197 331 320 435 272z m-3357 -33 c16 -12 19 -27 19 -103 0 -77 -4 -95 -30 -148 -36 -72 -133 -173 -196 -203 -32 -15 -64 -22 -108 -22 -56 0 -66 3 -92 29 -45 46 -43 103 9 180 56 83 211 241 257 262 48 22 114 24 141 5z m4810 0 c16 -12 19 -27 19 -103 0 -83 -2 -92 -39 -161 -71 -132 -182 -212 -295 -212 -56 0 -66 3 -92 29 -24 25 -29 38 -29 78 0 42 6 57 50 118 68 95 197 224 245 246 48 22 114 24 141 5z" fill="#FF4E50"/>
<path d="M4305 1436 c-22 -33 -16 -67 16 -85 24 -13 29 -13 58 8 49 35 36 83 -26 96 -27 5 -34 2 -48 -19z" fill="#FF4E50"/>
</g>
</svg>